<svg width="604" height="540" viewBox="0 0 604 540" fill="none" xmlns="http://www.w3.org/2000/svg">
<path d="M77.4405 448.316L77.5805 448.886C78.0304 450.755 75.6609 452.344 73.9213 453.504L57.1848 464.939L56.6149 465.339C55.3252 466.238 53.5655 467.478 52.1358 467.478C51.6859 467.478 51.296 467.358 50.9361 467.108L50.4562 466.778L49.1465 467.678L55.6651 477.213L56.9848 476.324L56.8448 475.754C56.4149 474.015 58.2345 472.645 60.4641 471.166C60.694 471.016 60.914 470.866 61.1239 470.726L77.2806 459.671L77.8604 459.271C79.1402 458.382 80.8798 457.152 82.2895 457.152C82.7394 457.152 83.1193 457.272 83.4692 457.532L83.9492 457.882L85.2689 456.982L78.7402 447.436L77.4305 448.336L77.4405 448.316Z" fill="#02375B"/>
<path d="M69.7621 437.091L70.172 437.361L71.5018 436.701L66.6528 426.965L65.3231 427.635L65.2931 428.115C65.1131 430.754 63.6434 431.483 61.2039 432.703L45.2573 440.639L56.4849 416.85C58.0646 413.591 59.0544 411.142 58.4845 406.944L58.3245 405.774L31.2002 419.289C28.6907 420.538 27.0711 421.218 24.9915 419.838L24.5816 419.568L23.2419 420.228L28.0709 429.924L29.4106 429.264L29.4406 428.764C29.5806 426.156 30.9603 425.466 33.4797 424.216L49.0565 416.46L37.109 441.909L36.4691 443.108C36.2991 443.508 36.2192 443.708 35.9292 444.008L35.2594 444.348L39.3885 452.644L40.7282 451.984L40.7582 451.495C40.9182 448.876 42.3479 448.156 44.9373 446.867L63.4834 437.631C66.0029 436.381 67.6226 435.701 69.7721 437.101L69.7621 437.091Z" fill="#02375B"/>
<path d="M24.7716 402.936L24.4816 402.766C22.9619 401.906 21.7422 400.207 21.0424 397.968L19.9326 394.419L41.2281 387.762L41.888 387.552C43.0577 387.172 44.5174 386.693 45.7372 386.693C46.677 386.693 47.3268 386.963 47.7767 387.532L48.1367 387.992L49.6563 387.522L46.0871 376.097L44.6674 376.537L44.5574 377.007C43.9675 379.586 42.4879 380.046 39.7984 380.885L17.853 387.742L16.7133 384.094C16.0734 382.045 16.1834 380.825 17.0732 380.135L17.5331 379.776L17.1232 378.446L8.97488 378.776L9.41479 380.155L9.53477 380.295C9.93468 380.745 10.1946 381.445 10.4146 382.155L16.5633 401.816C16.5933 401.996 16.6233 402.166 16.6633 402.346C16.7433 402.776 16.8232 403.175 16.7932 403.535L16.7732 403.705L17.0632 404.625L25.2715 404.485L24.7916 402.936H24.7716Z" fill="#02375B"/>
<path d="M33.1798 358.165L33.8597 358.045C34.8395 357.865 35.9492 357.665 36.979 357.665C38.8386 357.665 39.4285 358.345 39.7084 358.855L39.9984 359.374L41.578 359.115L37.7089 336.334L28.8507 334.885L29.1207 336.524L29.3706 336.724C31.8201 338.713 33.4397 341.832 33.6897 345.081L34.1196 350.918L23.5818 352.707L23.0519 349.599C22.812 348.209 22.522 346.49 23.4318 345.76L23.8218 345.451L23.5718 343.971L16.4733 345.181L16.6833 346.37L16.8032 346.53C17.0932 346.93 17.2232 347.67 17.3431 348.369L18.2329 353.627L10.2546 354.986C9.81471 353.597 9.52477 352.088 9.27482 350.638C8.84491 348.109 8.85491 346.46 10.1146 344.931L10.3646 344.631L10.1246 343.261L2.46625 344.561L2.6762 345.76L2.80618 345.93C3.05612 346.25 3.13611 346.82 3.22609 347.42L6.22546 365.132L7.79513 364.862L7.90511 364.282C8.24503 362.493 10.5046 361.993 13.204 361.564L33.1898 358.175L33.1798 358.165Z" fill="#02375B"/>
<path d="M7.67515 321.041C7.95509 321.041 8.21503 321.041 8.46498 321.031L28.0409 320.491C28.2808 320.491 28.5408 320.471 28.8107 320.461C29.3006 320.441 29.8205 320.421 30.3504 320.421C32.7199 320.421 33.9696 320.921 34.3995 322.041L34.6195 322.6L36.2192 322.55L35.8992 310.945L34.2996 310.995L34.1196 311.565C33.5697 313.274 31.2702 313.454 28.5508 313.494L18.3029 313.774L25.0915 309.066L32.7599 302.519C34.7795 300.79 35.5693 298.831 35.4893 295.762L35.2794 288.065L33.7897 290.584C31.8701 293.813 29.3106 296.951 26.9311 298.981L18.7028 305.898C17.2331 302.049 13.7039 298.501 9.13484 298.501H8.89489C6.27544 298.581 3.95593 299.73 2.37626 301.759C0.726605 303.868 -0.083225 306.837 0.0067561 310.346L0.366681 323.55L1.95635 323.5L2.14631 322.94C2.72619 321.241 4.99571 321.081 7.67515 321.041ZM6.34543 306.967C7.20525 306.018 8.365 305.508 9.70472 305.468H9.88468C14.4037 305.468 15.9834 310.526 16.5233 313.544L16.5733 313.814L5.31564 314.124C5.12568 313.104 5.01571 312.245 4.95572 311.415C4.83574 309.706 5.33564 308.087 6.34543 306.967Z" fill="#02375B"/>
<path d="M2.07631 278.23C3.18608 276.8 4.25585 276.51 5.52559 276.51C6.29543 276.51 7.14525 276.63 8.14504 276.76L28.6807 279.579C31.5501 279.969 33.1398 280.189 34.1696 282.688L34.3595 283.137L35.8292 283.337L37.3089 272.552L35.8292 272.352L35.5293 272.732C34.3995 274.161 33.3398 274.461 32.09 274.461C31.3402 274.461 30.5203 274.351 29.5705 274.221L11.9242 271.802L34.6195 258.468C37.7588 256.669 39.9584 255.2 41.858 251.401L42.3879 250.342L12.3542 246.223C9.57474 245.844 7.90509 245.614 6.9053 243.175L6.72534 242.725L5.24565 242.525L3.77595 253.25L5.25564 253.46L5.55558 253.06C6.64535 251.631 7.70513 251.331 8.94487 251.331C9.68471 251.331 10.5145 251.441 11.4643 251.571L28.7107 253.94L4.4958 268.244L3.28606 268.874C2.91614 269.114 2.73617 269.233 2.32626 269.313L1.57642 269.223L0.316681 278.4L1.79637 278.599L2.09631 278.21L2.07631 278.23Z" fill="#02375B"/>
<path d="M14.4337 215.317C14.8636 214.707 15.2036 214.637 15.4135 214.637C16.0934 214.637 17.0132 215.387 17.833 216.056L35.9892 231.14L36.5991 231.63C38.8186 233.409 40.7382 234.938 41.1481 237.667L41.2281 238.187L42.6778 238.657L46.1371 227.951L44.6274 227.462L44.2675 227.921C43.6176 228.731 43.2077 228.831 42.9477 228.831C42.2379 228.831 41.2181 228.061 40.0383 227.132L34.3695 222.674L38.0288 211.339L45.9571 210.909C46.667 210.869 47.2568 210.829 47.7367 210.829C48.9165 210.829 49.0765 210.829 49.2564 212.528L49.3164 213.068L50.7961 213.548L54.5953 201.803L53.1456 201.333L52.7757 201.703C50.8561 203.632 48.3966 203.792 45.5472 203.972L15.4935 206.151L12.5341 215.307L14.0838 215.807L14.4437 215.297L14.4337 215.317ZM21.4822 212.308L32.1 211.688L29.7205 219.065L21.4822 212.308Z" fill="#02375B"/>
<path d="M31.1902 185.38L31.0902 185.06C30.5803 183.391 30.8603 181.322 31.8801 179.212L33.5097 175.864L53.5655 185.64L54.1954 185.94C56.085 186.829 58.6644 188.049 58.4945 189.978L58.4445 190.558L59.8742 191.257L65.1231 180.492L63.7834 179.842L63.3834 180.112C61.2839 181.511 59.7342 180.872 57.2547 179.662L36.5891 169.587L38.2687 166.148C39.2085 164.229 40.1183 163.399 41.2481 163.519L41.838 163.579L42.4478 162.33L36.2991 156.982L35.6693 158.281V158.471C35.6493 159.071 35.3493 159.761 35.0294 160.421L26.0013 178.943C25.9013 179.092 25.8013 179.242 25.7114 179.392C25.4714 179.772 25.2614 180.102 24.9915 180.342L24.8615 180.452L24.4416 181.312L30.5003 186.839L31.2102 185.38H31.1902Z" fill="#02375B"/>
<path d="M46.317 144.617C46.6969 144.328 47.1169 144.198 47.6068 144.198C48.9865 144.198 50.6361 145.287 51.9558 146.167C52.1858 146.317 52.4057 146.467 52.6157 146.607L69.0922 157.172L69.6821 157.542C71.4618 158.651 73.9012 160.181 73.4813 162.03L73.3514 162.61L74.6911 163.469L80.9298 153.743L79.59 152.894L79.1201 153.244C78.7502 153.524 78.3303 153.654 77.8504 153.654C76.4507 153.654 74.7811 152.554 73.4413 151.674L56.3849 140.719L55.795 140.349C54.0054 139.23 51.5559 137.7 51.9558 135.811L52.0758 135.241L50.7361 134.382L44.4974 144.108L45.8371 144.967L46.307 144.617H46.317Z" fill="#02375B"/>
<path d="M98.5661 102.376C95.3068 99.5869 91.1176 98.0576 86.7685 98.0576C81.0697 98.0576 75.7908 100.576 71.9217 105.144C68.1624 109.333 66.2928 114.62 66.6428 120.038C66.9727 125.056 69.2022 129.574 72.9215 132.753C76.3707 135.701 80.5099 137.261 84.8989 137.261C90.6177 137.261 96.1666 134.602 100.126 129.964C103.565 125.936 105.345 120.918 105.125 115.82C104.905 110.582 102.575 105.814 98.5561 102.376H98.5661ZM96.1766 126.235C93.3072 129.594 89.7079 130.294 87.1985 130.294C83.7492 130.294 80.2299 128.974 77.5305 126.665C74.7711 124.306 73.0614 121.278 72.7215 118.149C72.3716 114.91 73.4413 111.742 75.8108 108.963C78.0504 106.344 81.0497 104.955 84.489 104.955C87.9283 104.955 91.5275 106.364 94.4069 108.833C97.1364 111.162 98.826 114.141 99.1759 117.219C99.5359 120.398 98.4961 123.517 96.1766 126.235Z" fill="#02375B"/>
<path d="M125.05 58.9045L125.22 58.4447L124.271 57.2952L115.912 64.1822L116.862 65.3317L117.352 65.2418C119.862 64.802 120.961 66.0514 122.701 68.1605L133.769 81.5947L106.264 75.6872L104.955 75.3274C104.525 75.2574 104.315 75.2174 103.955 75.0075L103.485 74.4078L96.3165 80.3152L97.2663 81.4647L97.7462 81.3848C100.286 80.955 101.415 82.2544 103.195 84.4235L116.372 100.417C118.222 102.656 119.232 103.885 118.302 106.424L118.132 106.884L119.082 108.033L127.48 101.116L126.54 99.9667L126.06 100.047C125.72 100.097 125.4 100.127 125.11 100.127C123.171 100.127 122.181 98.9172 120.671 97.088L109.344 83.3439L135.058 88.9315C137.018 89.3813 138.558 89.6612 140.107 89.6612C141.747 89.6612 143.347 89.3413 145.166 88.6516L146.266 88.2318L126.99 64.8419C125.15 62.6029 124.131 61.3734 125.05 58.9145V58.9045Z" fill="#02375B"/>
<path d="M185.548 60.134C182.818 60.2739 180.909 58.7346 178.669 56.9454L154.984 38.3334L146.636 43.1113L147.446 44.5207L148.056 44.3908C149.385 44.1009 149.725 44.8306 150.075 47.2196L153.345 70.5894L153.465 71.3691C153.904 74.1779 154.294 76.5968 152.765 78.8958L152.475 79.3357L153.235 80.6551L163.003 75.0675L162.213 73.6881L161.633 73.7781C161.383 73.818 161.163 73.838 160.963 73.838C159.913 73.838 159.543 73.3782 159.043 70.3496L157.854 63.2326L168.201 57.3152L174.35 62.333C175.963 63.6325 176.413 64.772 175.7 65.7515L175.38 66.1913L176.15 67.5408L186.858 61.4134L186.108 60.094L185.588 60.124L185.548 60.134ZM163.542 53.5868L156.814 57.4351L155.274 46.8997L163.542 53.5868Z" fill="#02375B"/>
<path d="M215.831 41.1822C214.202 44.1109 211.852 46.0701 208.853 47.0097L202.844 48.8489L195.086 28.4277C194.996 28.1978 194.906 27.9579 194.806 27.708C193.816 25.2091 193.106 23.04 194.446 21.8605L194.896 21.4707L194.326 19.9913L183.468 24.1096L184.058 25.5889H184.638C186.448 25.5889 187.377 27.698 188.307 30.2569L195.496 49.2087L195.746 49.8484C196.516 51.8076 197.565 54.4864 196.086 55.7359L195.626 56.1257L196.196 57.6251L217.481 49.5486L217.571 40.3126L215.981 40.9223L215.831 41.1922V41.1822Z" fill="#02375B"/>
<path d="M282.747 27.9979C280.418 29.7371 276.769 31.9262 272.58 32.446C272.05 32.5159 271.52 32.5459 271.01 32.5459C264.721 32.5459 259.522 27.4781 258.652 20.4911C257.783 13.5241 261.792 8.0865 268.39 7.25686C271.43 6.87702 274.739 7.46677 277.818 8.92613L279.208 9.58585L278.198 1.46936L277.528 1.39939C273.619 0.969577 270.55 0.93959 267.791 1.27944C256.653 2.66884 249.814 11.2651 251.184 22.2004C252.464 32.436 259.592 38.5433 270.25 38.5433C271.47 38.5433 272.739 38.4633 274.039 38.3034C277.139 37.9136 279.808 37.034 281.978 35.6646L282.248 35.4946L284.587 27.648L282.917 27.8579L282.737 27.9979H282.747Z" fill="#02375B"/>
<path d="M319.69 27.788L313.201 19.2217C317.21 17.9322 320.969 14.5037 321.079 9.80576C321.139 7.18689 320.11 4.80792 318.17 3.12865C316.15 1.3794 313.221 0.409823 309.712 0.319862L296.505 0L296.475 1.58931L297.014 1.80922C298.674 2.47893 298.724 4.74795 298.624 7.42679C298.614 7.70667 298.604 7.96655 298.594 8.21644L298.124 27.788C298.124 28.0279 298.124 28.2878 298.124 28.5676C298.104 31.2465 297.944 33.5155 296.265 34.0653L295.695 34.2552L295.665 35.8545L307.272 36.1344L307.302 34.5351L306.742 34.3251C305.063 33.6854 305.003 31.3864 305.103 28.6676L305.353 18.422L309.702 25.449L315.85 33.4355C317.48 35.5446 319.39 36.4342 322.459 36.5042L330.157 36.6841L327.718 35.0648C324.599 32.9857 321.589 30.2669 319.69 27.788ZM305.393 16.6828L305.663 5.42765C306.692 5.28771 307.552 5.21774 308.392 5.20775H308.542C310.222 5.20775 311.771 5.80749 312.801 6.86703C313.681 7.76664 314.121 8.93613 314.091 10.2656C313.981 14.9135 308.772 16.263 305.673 16.6528L305.403 16.6828H305.393Z" fill="#02375B"/>
<path d="M366.15 35.3047L360.071 5.79749L350.613 4.05824L350.313 5.65755L350.863 5.94742C351.533 6.29727 351.613 6.61714 351.643 6.72709C351.823 7.3968 351.163 8.46634 350.573 9.41592L337.986 29.3773L337.576 30.047C336.106 32.4759 334.837 34.575 332.187 35.3447L331.677 35.4946L331.407 36.994L342.465 39.0231L342.755 37.4638L342.245 37.1639C341.105 36.4842 341.145 35.9844 341.165 35.7245C341.225 35.0148 341.815 33.9753 342.475 32.8758L346.154 26.6685L357.872 28.8175L359.321 36.6142C359.708 38.6466 359.315 39.8061 358.142 40.0926L357.612 40.2226L357.322 41.7419L369.459 43.971L369.729 42.4716L369.319 42.1618C367.16 40.5125 366.68 38.0935 366.12 35.2947L366.15 35.3047ZM356.762 22.99L349.144 21.5907L354.762 12.5446L356.762 22.99Z" fill="#02375B"/>
<path d="M423.538 26.7084L424.058 25.309L413.9 21.5507L413.38 22.9501L413.7 23.3299C415.38 25.319 414.85 26.7784 413.87 29.4073L407.831 45.7302L399.103 19.0018L398.753 17.6923C398.593 17.2825 398.523 17.0826 398.523 16.6628L398.783 15.9531L390.085 12.7345L389.565 14.1339L389.875 14.5137C391.555 16.5328 391.005 18.0322 389.995 20.751L382.806 40.1726C381.797 42.8914 381.247 44.3908 378.587 44.8606L378.107 44.9405L377.588 46.3399L387.795 50.1183L388.315 48.7189L388.005 48.3391C386.326 46.3 386.866 44.8406 387.845 42.2017L394.024 25.499L402.132 50.5281C403.212 53.9866 404.172 56.4456 407.461 59.1144L408.381 59.8541L418.899 31.4364C419.909 28.7176 420.459 27.2182 423.048 26.7784L423.528 26.6984L423.538 26.7084Z" fill="#02375B"/>
<path d="M456.071 42.1517C455.671 42.1517 455.171 41.8519 454.651 41.542L438.985 32.7458L438.205 34.1352L438.585 34.585C439.764 35.9744 438.735 38.0435 437.375 40.4025L427.447 58.0749L427.117 58.6746C426.117 60.5138 424.758 63.0527 422.808 62.7129L422.218 62.6129L421.438 64.0123L441.584 75.3174L448.283 69.34L446.833 68.5303L446.523 68.6003C443.454 69.25 439.964 68.5303 437.305 66.7011L432.496 63.3726L437.725 54.0566L440.474 55.5959C441.704 56.2856 443.234 57.1353 443.224 58.3048V58.8045L444.534 59.5442L448.053 53.2669L447.003 52.6772H446.803C446.303 52.6472 445.663 52.2774 445.033 51.9275L440.384 49.3186L444.344 42.2617C445.703 42.7915 447.063 43.5112 448.343 44.2309C450.582 45.4803 451.862 46.5299 452.252 48.469L452.332 48.8489L453.542 49.5286L457.341 42.7515L456.281 42.1617H456.071V42.1517Z" fill="#02375B"/>
<path d="M499.502 91.8702C499.022 91.7403 498.492 91.2605 497.972 90.8007L493.963 87.2023L499.372 81.1849C500.582 81.9945 501.751 83.0041 502.841 83.9837C504.701 85.6529 505.781 87.0023 505.771 88.9415V89.3213L506.8 90.2509L511.949 84.5034L511.049 83.6938L510.84 83.6438C510.45 83.5538 510.03 83.154 509.58 82.7442L496.213 70.7394L495.153 71.9289L495.423 72.4486C496.273 74.058 494.813 75.8572 492.963 77.8663L479.416 92.9498L478.966 93.4595C477.597 95.0189 475.657 97.1979 473.887 96.4682L473.337 96.2383L472.268 97.4278L480.836 105.115L481.896 103.935L481.626 103.415C480.836 101.886 482.246 100.177 484.035 98.2675C484.245 98.0376 484.445 97.8277 484.635 97.6178L490.344 91.2505L492.783 93.4396C494.073 94.5891 495.033 95.5486 494.783 96.5782L494.663 97.078L495.793 98.0875L500.602 92.7299L499.702 91.9302L499.512 91.8802L499.502 91.8702Z" fill="#02375B"/>
<path d="M533.225 135.351C536.934 132.253 539.224 127.855 539.654 122.967C540.103 117.849 538.434 112.751 534.954 108.633C531.015 103.685 525.277 100.836 519.188 100.836C514.899 100.836 510.77 102.316 507.56 104.995C499.302 111.882 498.522 123.607 505.751 132.283C509.7 137.021 515.349 139.73 521.257 139.73C525.656 139.73 529.786 138.22 533.225 135.351ZM527.546 130.174C524.947 132.343 522.027 133.482 519.088 133.482C515.649 133.482 512.539 131.933 510.09 128.994C507.84 126.295 506.96 122.837 507.62 119.268C508.24 115.95 510.12 112.761 512.789 110.542C515.409 108.363 518.358 107.204 521.317 107.204C524.827 107.204 528.016 108.793 530.525 111.812C535.594 117.889 532.775 125.806 527.536 130.174H527.546Z" fill="#02375B"/>
<path d="M528.356 155.893C527.366 159.111 527.986 162.989 530.046 166.518C531.535 169.057 534.135 171.856 537.364 173.045L535.474 174.145L540.193 182.191L541.563 181.391L541.463 180.812C541.143 179.013 543.073 177.763 545.422 176.414L562.909 166.178L563.508 165.818C564.848 165.019 566.518 164.009 567.908 164.009C568.457 164.009 568.917 164.169 569.317 164.499L569.947 165.019L570.997 163.819L565.278 154.053L563.908 154.853L564.008 155.433C564.328 157.332 561.849 158.751 560.029 159.781L545.742 168.147C544.463 168.897 543.623 169.397 542.373 169.397C542.203 169.397 542.013 169.397 541.813 169.367C539.314 169.157 536.954 167.557 535.504 165.079C534.255 162.949 533.965 161.04 534.605 159.251C535.274 157.372 537.014 155.613 539.763 153.993L551.721 146.986L552.321 146.627C553.651 145.827 555.31 144.827 556.7 144.827C557.23 144.827 557.67 144.977 558.06 145.287L558.52 145.657L559.889 144.857L554.04 134.882L552.671 135.681L552.771 136.261C553.081 138.03 551.181 139.25 548.872 140.569C548.632 140.699 548.412 140.829 548.202 140.959L535.904 148.166C532.685 150.045 529.636 151.834 528.376 155.903L528.356 155.893Z" fill="#02375B"/>
<path d="M546.922 192.117L546.542 191.807L545.152 192.327L548.962 202.522L550.351 201.993L550.431 201.513C550.881 198.904 552.341 198.364 554.98 197.375L571.667 191.137L558.02 213.638C556.11 216.716 554.87 219.045 555 223.283L555.04 224.463L583.434 213.847C584.814 213.328 586.004 212.888 587.064 212.888C587.983 212.888 588.783 213.218 589.673 213.947L590.053 214.257L591.453 213.738L587.653 203.592L586.254 204.112L586.174 204.601C585.764 207.18 584.314 207.72 581.675 208.71L565.368 214.807L579.905 190.727L580.675 189.608C580.885 189.218 580.995 189.038 581.305 188.768L582.015 188.498L578.765 179.812L577.366 180.332L577.286 180.812C576.856 183.401 575.356 183.96 572.637 184.98L553.231 192.237C550.541 193.246 548.892 193.706 546.922 192.107V192.117Z" fill="#02375B"/>
<path d="M588.523 234.249L569.277 237.817L568.397 237.987C567.328 238.197 566.318 238.397 565.428 238.397C564.188 238.397 563.289 238.027 562.419 237.147L562.099 236.827L560.669 237.097L563.089 250.182C564.998 260.497 572.097 267.164 581.165 267.164C582.335 267.164 583.534 267.054 584.724 266.835C589.953 265.865 594.002 263.196 596.412 259.118C598.801 255.08 599.491 249.822 598.391 243.904L595.922 230.57L594.312 230.86L594.242 231.49C594.072 233.169 591.893 233.679 589.293 234.119C589.023 234.169 588.753 234.209 588.513 234.259L588.523 234.249ZM567.928 245.164L591.893 240.726C592.402 241.995 592.762 243.205 592.992 244.414C594.532 252.721 590.993 257.918 582.744 259.438C581.835 259.608 580.935 259.688 580.085 259.688C574.016 259.688 569.597 255.349 568.247 248.093C568.058 247.053 567.948 246.093 567.928 245.154V245.164Z" fill="#02375B"/>
<path d="M576.396 280.878L575.656 280.619C572.977 279.679 570.657 278.869 569.357 276.43L569.117 275.971L567.588 276.001L567.878 287.246L569.467 287.196L569.657 286.646C570.097 285.386 570.577 285.287 571.077 285.287C571.787 285.287 572.817 285.626 573.906 285.996L580.735 288.315L581.035 300.22L573.696 303.249C572.477 303.759 571.587 304.128 571.107 304.128C570.917 304.128 570.667 304.128 570.037 302.809L569.797 302.309L568.247 302.349L568.567 314.674L570.087 314.644L570.307 314.174C571.477 311.715 573.746 310.756 576.376 309.626L604 297.601L603.75 287.985L602.13 288.035L601.96 288.635C601.691 289.585 601.251 289.665 600.821 289.665C600.171 289.665 599.321 289.355 598.511 289.065L576.376 280.858L576.396 280.878ZM586.324 290.184L596.332 293.823L586.514 297.931L586.314 290.184H586.324Z" fill="#02375B"/>
<path d="M596.072 323.48L596.272 323.75C597.311 325.149 597.731 327.208 597.461 329.527L597.031 333.226L574.866 330.637L574.176 330.567C572.097 330.347 569.257 330.047 568.787 328.178L568.647 327.608L567.068 327.428L565.678 339.313L567.158 339.493L567.448 339.103C569.167 336.814 570.757 337.194 573.376 337.504L596.212 340.173L595.772 343.971C595.522 346.1 594.922 347.17 593.832 347.44L593.262 347.58L593.102 348.959L600.681 351.978L600.841 350.538L600.781 350.358C600.591 349.789 600.651 349.029 600.731 348.309L603.12 327.848C603.17 327.678 603.21 327.498 603.25 327.328C603.35 326.909 603.44 326.509 603.62 326.189L603.7 326.039L603.81 325.089L596.262 321.871L596.082 323.48H596.072Z" fill="#02375B"/>
<path d="M595.152 367.501C594.692 368.191 593.952 368.501 592.832 368.501C591.713 368.501 590.443 368.171 589.313 367.891C589.043 367.821 588.793 367.761 588.543 367.701L569.507 363.133L568.827 362.973C566.778 362.503 563.978 361.873 563.768 359.984L563.698 359.394L562.149 359.025L559.449 370.26L560.989 370.63L561.319 370.15C561.779 369.48 562.519 369.16 563.658 369.16C564.798 369.16 566.078 369.48 567.198 369.77L586.904 374.498L587.583 374.658C589.643 375.128 592.452 375.767 592.702 377.677L592.772 378.256L594.312 378.626L597.011 367.391L595.462 367.021L595.132 367.511L595.152 367.501Z" fill="#02375B"/>
<path d="M573.916 387.502C571.657 386.613 569.337 386.163 567.008 386.163C559.209 386.163 552.181 391.211 549.111 399.027C547.172 403.955 547.142 409.283 549.012 414.031C550.931 418.909 554.7 422.657 559.619 424.586C561.709 425.406 563.918 425.826 566.178 425.826C573.986 425.826 580.935 420.888 583.894 413.261C586.074 408.073 586.114 402.456 584.004 397.458C582.045 392.82 578.465 389.282 573.916 387.492V387.502ZM578.975 410.932C577.166 415.55 572.867 418.299 567.488 418.299C565.468 418.299 563.368 417.899 561.439 417.139C554.39 414.371 551.431 407.993 554.08 401.266C556.27 395.699 561.659 393.72 565.978 393.72C567.888 393.72 569.817 394.079 571.567 394.769C578.695 397.568 581.675 404.065 578.975 410.932Z" fill="#02375B"/>
<path d="M567.258 444.148C566.508 444.558 565.818 444.758 565.168 444.758C563.898 444.758 562.669 444.008 561.119 443.058L543.453 432.233C541.063 430.764 539.614 429.884 539.674 427.185V426.705L538.414 425.926L532.725 435.202L533.995 435.981L534.425 435.751C536.644 434.562 538.194 435.382 540.473 436.781L555.66 446.087L529.526 449.176C525.926 449.565 523.327 450.025 520.068 452.734L519.158 453.494L545.002 469.327C547.472 470.846 548.832 471.676 548.762 474.305V474.795L550.021 475.574L555.68 466.348L554.41 465.569L553.98 465.808C551.801 467.018 550.261 466.198 547.982 464.799L533.145 455.703L561.059 452.334L562.419 452.244C562.809 452.174 563.049 452.134 563.469 452.214L564.108 452.614L568.957 444.708L567.688 443.928L567.258 444.158V444.148Z" fill="#02375B"/>
<path d="M174.59 171.616C174.59 171.616 168.741 148.396 173.89 144.278C175.64 142.878 178.099 166.358 195.996 196.795C203.024 208.74 225.489 230.74 231.028 235.058C236.577 233.149 237.687 230.15 241.896 224.893L242.085 224.324C242.241 223.851 242.396 223.377 242.55 222.906L242.735 222.342C245.522 213.806 248.01 206.346 253.114 213.678C253.366 212.983 253.594 212.249 253.804 211.497L253.942 210.992C255.954 203.483 256.528 194.657 264.331 205.261C262.932 201.773 262.602 192.707 265.031 189.838C267.031 187.479 269.98 198.464 276.249 202.452C273.369 195.316 272.44 183.84 276.949 180.372C278.26 179.361 280.354 183.978 282.889 188.705L283.215 189.308C285.239 193.029 287.529 196.672 289.916 197.545C289.916 197.545 286.657 172.965 293.425 168.457C294.54 167.716 295.9 173.151 297.604 178.858L297.81 179.544L298.019 180.23C298.054 180.344 298.09 180.458 298.125 180.573L298.34 181.255C299.565 185.108 300.956 188.705 302.543 190.188C304.453 191.967 300.514 166.288 307.802 159.701C309.47 157.62 310.598 165.819 311.794 174.098L311.975 175.339C312.718 180.434 313.499 185.364 314.461 187.739C315.85 170.216 320.919 156.542 326.378 156.542C328.458 156.542 323.929 175.824 323.579 194.046C323.474 199.498 319.414 207.666 315.391 215.921L314.843 217.047C313.293 220.238 311.776 223.423 310.522 226.452C310.522 226.452 307.173 235.332 303.241 244.217L302.887 245.012C301.052 249.12 299.11 253.172 297.334 256.289C294.355 261.517 286.577 295.442 289.816 297.991C317.81 304.868 305.783 336.434 324.399 350.668C338.426 361.384 350.133 344.021 361.661 345.111C368.309 345.74 376.838 347.69 380.047 352.587C382.575 356.449 382.971 363.609 382.981 367.574L382.98 368.025C382.973 369.478 382.916 370.4 382.916 370.4C391.027 398.055 391.351 406.273 391.364 406.886L391.365 406.924C388.565 402.716 382.187 382.784 375.238 371.179C369.649 366.691 365.12 359.474 361.861 357.965C352.143 353.457 342.115 366.381 329.927 364.212C315.69 361.674 306.212 351.008 297.264 342.822C291.102 343.003 287.576 346.515 284.366 350.242L283.887 350.802C283.807 350.896 283.728 350.989 283.648 351.083L283.173 351.643C283.093 351.737 283.014 351.83 282.935 351.923L282.459 352.479C281.03 354.138 279.57 355.715 277.868 356.926C275.983 358.267 273.569 359.162 271.099 360.036L270.039 360.41C266.856 361.538 263.695 362.732 261.562 364.902C256.613 369.94 257.293 372.919 254.273 378.086C251.064 383.584 245.595 390.231 245.595 390.231C240.286 399.157 243.546 415.99 248.025 425.626C248.025 425.626 248.072 425.644 248.162 425.681L248.372 425.765C250.982 426.818 267.686 433.674 277.409 440.469C281.058 443.018 280.998 451.984 280.478 458.232C280.328 460.011 277.758 463.639 277.179 463.439C275.759 462.94 276.999 453.204 271.63 451.984L271.68 451.934C272.111 451.489 275.003 448.082 269.03 442.269C265.853 439.18 255.48 435.078 254.835 434.824L254.803 434.812C256.347 439.453 287.367 478.324 287.987 479.101L287.996 479.113V479.103C290.916 482.381 298.704 498.124 297.664 503.332C296.754 507.9 295.235 494.306 287.216 488.329C285.447 487.009 281.598 493.087 281.508 490.618C281.371 486.396 279.046 479.096 278.639 477.847L278.601 477.731C278.586 477.686 278.578 477.663 278.578 477.663C278.578 477.663 250.464 433.942 241.796 430.474C232.058 426.575 220.48 423.807 210.563 422.147C198.325 420.098 233.038 388.092 227.159 374.428C213.332 371.489 202.234 363.513 203.624 361.084C202.013 360.579 199.699 359.958 197.32 359.254L196.791 359.096L196.26 358.936C196.172 358.909 196.084 358.882 195.996 358.855L195.467 358.691C190.288 357.064 185.584 355.086 188.007 353.107C184.508 352.646 181.841 352.24 179.136 351.791L178.458 351.677C174.042 350.933 169.333 350.051 160.593 348.599C165.452 344.781 174.13 342.002 178.989 336.105C182.029 335.505 187.167 334.875 188.357 333.676C190.437 329.168 192.946 327.838 192.106 323.86C188.797 323.11 175.99 301.29 180.549 296.732C165.122 276.75 159.863 261.687 165.822 261.687C161.653 262.037 142.797 235.068 153.904 236.458C148.696 231.6 124.811 200.353 144.786 211.219C133.679 201.853 119.202 184.93 122.351 175.824C122.701 173.045 137.518 191.237 146.886 190.897C135.668 181.082 125.15 166.368 128.66 156.552C130.299 151.954 138.828 172.325 154.514 180.842C154.514 180.842 136.368 157.952 143.737 146.037C145.406 143.328 153.205 167.418 164.772 176.524C156.004 155.843 158.114 145.687 162.323 143.228C165.092 141.619 162.673 156.542 174.59 171.616ZM234.228 391.601C232.86 393.759 229.13 397.857 225.538 402.132L224.973 402.808C220.744 407.887 216.894 413.084 217.571 415.47C221.03 418.959 232.668 421.777 240.206 423.597C238.83 412.347 237.46 404.967 235.766 397.794L235.522 396.77C235.152 395.236 234.767 393.702 234.363 392.135L234.228 391.611V391.601ZM321.589 112.401C423.958 112.401 506.94 195.365 506.94 297.711C506.94 340.303 492.573 379.536 468.408 410.832C485.945 382.155 496.053 348.439 496.053 312.355C496.053 207.95 411.4 123.317 306.972 123.317C271.023 123.317 237.426 133.349 208.809 150.755L208.054 151.216L208.897 150.566C240.125 126.626 279.196 112.401 321.589 112.401Z" fill="#02375B"/>
<path d="M315.521 473.615C315.531 482.661 455.101 492.337 456.181 511.259C457.431 533.139 270.71 538.567 158.174 528.541C273.619 545.634 509.46 544.824 508.642 517.796C507.92 494.216 345.254 483.371 346.234 474.175C346.954 467.388 399.283 466.878 413.2 466.918C389.365 463.519 315.511 465.629 315.521 473.615Z" fill="#02375B"/>
</svg>
