<?xml version="1.0" encoding="UTF-8"?> <svg xmlns="http://www.w3.org/2000/svg" xmlns:xlink="http://www.w3.org/1999/xlink" height="94" viewBox="0 0 192 94" width="192"><mask id="a" fill="#fff"><path d="m0 92.7115584h191.142853v-92.7115584h-191.142853z" fill="#fff" fill-rule="evenodd"></path></mask><g fill="none" fill-rule="evenodd" transform="translate(.715293 .5)"><path d="m69.6613431 8.8768264-2.8981066 2.8981066c6.6044163.2610609 12.9076447 2.5058071 18.1883452 6.1351675.4281777-.837.8931777-1.6522843 1.3846142-2.4491574-4.7939847-3.5047309-10.4877563-5.85050249-16.6748528-6.5841167" fill="#007665"></path><path d="m106.520784.00018883c-8.4823556 2.4958934-15.6386348 8.09052792-20.1843048 15.46018777-.4923807.7973452-.9559645 1.6121574-1.3850863 2.4496295-2.0644112 4.0329898-3.3881269 8.5059594-3.7676802 13.2447107l1.453066 1.453538c.2303756-4.853467 1.6678629-9.4203807 3.9772842-13.4925533.447533-.7902639.9276396-1.5592842 1.4407919-2.3089492 4.8326955-7.0708325 12.4289542-12.31046194 21.0024212-14.27007108z" fill="#6ba342"></path><path d="m78.5379807.00018883-2.5364924 2.53649239c14.170934 3.2398934 25.7241777 15.40070558 26.4204977 30.07157358l1.453066-1.453538c-1.18634-14.8176853-11.5178378-27.08896452-25.3370713-31.15452797" fill="#007665"></path><path d="m85.2609838 35.2322711 1.389335 1.3888629c1.1126954-4.2746954 3.1544467-8.2208223 5.8741066-11.6547411-.4890762-.6170102-1.0074213-1.2118325-1.5394569-1.7948528-2.6186345 3.5731827-4.5881573 7.6505482-5.7239847 12.060731" fill="#6ba342"></path><path d="m118.29515 11.7747914-2.898106-2.89810663c-9.146574 1.08484264-17.2366298 5.66261423-22.8926349 12.35908633.5362843.6325888 1.0551016 1.2798121 1.5470102 1.9487512 6.0837107-6.678533 14.8634767-11.0386751 24.2437307-11.4097309" fill="#6ba342"></path><g fill="#007665"><path d="m94.0511832 23.1842863c-.4919086-.6689391-1.0102538-1.3161624-1.5474822-1.9487513-1.3562893-1.5979949-2.8348477-3.0897715-4.4493655-4.4285939-.5122081.749665-.9932589 1.5186853-1.4407918 2.3089493 1.5772233 1.2241066 3.0331218 2.5888934 4.371472 4.0551776.5320356.5830203 1.0494366 1.1778427 1.5389848 1.7953249 2.7234366 3.4339188 4.7713249 7.3772132 5.8849645 11.6547411l1.3883908-1.389335c-1.1362995-4.4125432-3.121401-8.4781066-5.7461726-12.0475127"></path><path d="m109.673673 92.5684706v-10.3494366h4.959685v1.5484264h-3.181828v2.6653706h2.380706v1.5484264h-2.380706v4.5872132z"></path><path d="m117.757591 90.0167299c0 .7751574.229904 1.1481016.947467 1.1481016.716148 0 .945107-.3729442.945107-1.1481016v-5.2457664c0-.7751574-.228959-1.1476295-.945107-1.1476295-.717563 0-.947467.3724721-.947467 1.1476295zm-1.777385-5.2901421c0-1.4610914.860604-2.6502639 2.724852-2.6502639 1.862361 0 2.722021 1.1891725 2.722021 2.6502639v5.3340457c0 1.4615635-.85966 2.650736-2.722021 2.650736-1.864248 0-2.724852-1.1891725-2.724852-2.650736z"></path><path d="m124.753552 86.863369h.631172c.961158 0 1.318523-.3592538 1.318523-1.5899695 0-1.2335482-.357365-1.592802-1.318523-1.592802h-.631172zm0 5.7046295h-1.777858v-10.3494366h2.494949c1.992655 0 3.00999.8459696 3.00999 3.0548376 0 1.6617259-.645807 2.3349137-1.246767 2.6068325l1.504051 4.6877665h-1.805238l-1.262345-4.2846092c-.228016.0278528-.60096.0420153-.916782.0420153z"></path><path d="m29.0058975 92.5684706v-10.3494366h4.9596852v1.5484264h-3.1822995v2.6653706h2.3807056v1.5484264h-2.3807056v4.5872132z"></path><path d="m37.0898162 90.0167299c0 .7751574.2299036 1.1481016.946995 1.1481016.7166193 0 .9451066-.3729442.9451066-1.1481016v-5.2457664c0-.7751574-.2284873-1.1476295-.9451066-1.1476295-.7170914 0-.946995.3724721-.946995 1.1476295zm-1.7773857-5.2901421c0-1.4610914.8601319-2.6502639 2.7243807-2.6502639 1.8628325 0 2.7224924 1.1891725 2.7224924 2.6502639v5.3340457c0 1.4615635-.8596599 2.650736-2.7224924 2.650736-1.8642488 0-2.7243807-1.1891725-2.7243807-2.650736z"></path><path d="m44.0854934 86.863369h.6311726c.9611574 0 1.3185228-.3592538 1.3185228-1.5899695 0-1.2335482-.3573654-1.592802-1.3185228-1.592802h-.6311726zm0 5.7046295h-1.7773858v-10.3494366h2.4944772c1.9931269 0 3.0099898.8459696 3.0099898 3.0548376 0 1.6617259-.645335 2.3349137-1.2467665 2.6068325l1.5045229 4.6877665h-1.8052386l-1.2623452-4.2846092c-.2284873.0278528-.6014315.0420153-.9172538.0420153z"></path><path d="m56.0673396 82.2190812h1.4615634l1.2052234 6.5945026h.0278528l.9885381-6.5945026h1.6640863l-1.8208173 10.3494366h-1.4913046l-1.2887817-6.8371523h-.029269l-1.2038071 6.8371523h-1.4908325l-1.96433-10.3494366h1.6626701l1.0895634 6.5945026h.0278528z"></path><path d="m63.147 92.5685178h1.7773858v-10.3494366h-1.7773858z" mask="url(#a)"></path><path d="m67.1582269 92.5684706v-10.3494366h1.7773858v8.8010102h2.795665v1.5484264z" mask="url(#a)"></path><path d="m74.9531376 91.1070487h.6174822c.9451066 0 1.2746193-.3597259 1.2746193-1.4478731v-4.5305634c0-1.0895635-.3295127-1.4478731-1.2746193-1.4478731h-.6174822zm-1.7773858-8.8878731h2.6375177c1.8345077 0 2.8088833 1.0027005 2.8088833 3.1256498v4.0986091c0 2.1224772-.9743756 3.1251777-2.8088833 3.1251777h-2.6375177z" mask="url(#a)"></path><path d="m80.6144299 92.5684706v-10.3494366h1.7778579v8.8010102h2.795665v1.5484264z" mask="url(#a)"></path><path d="m86.8766345 92.5685178h1.7773858v-10.3494366h-1.7773858z" mask="url(#a)"></path><path d="m90.9748188 92.5684706v-10.3494366h4.9596853v1.5484264h-3.1818275v2.6653706h2.3807056v1.5484264h-2.3807056v4.5872132z" mask="url(#a)"></path><path d="m97.6185594 92.5684706v-10.3494366h4.7590506v1.5484264h-2.9816648v2.6653706h2.2928988v1.5484264h-2.2928988v3.0387868h3.1822998v1.5484264z" mask="url(#a)"></path><path d="m103.819629 92.5685178h1.69194v-1.6919391h-1.69194z" mask="url(#a)"></path><path d="m135.675009 88.7263431h1.433711l-.702929-4.4422842h-.029741zm-.573579 3.8422691h-1.719319l1.905792-10.3494366h2.206507l1.905792 10.3494366h-1.71932l-.315822-2.2938427h-1.948279z" mask="url(#a)"></path><path d="m140.902978 92.5684706v-10.3494366h1.777386v8.8010102h2.795665v1.5484264z" mask="url(#a)"></path><path d="m146.635696 92.5684706v-10.3494366h1.777386v8.8010102h2.795665v1.5484264z" mask="url(#a)"></path><path d="m152.537939 92.5685178h1.691939v-1.6919391h-1.691939z" mask="url(#a)"></path><path d="m.00009442 72.3118431v-20.006802h3.43722335v17.0142792h5.40296954v2.9925228z" mask="url(#a)"></path><path d="m11.927132 72.3115127h3.4358071v-20.006802h-3.4358071z" mask="url(#a)"></path><path d="m18.6551391 72.3118431v-20.006802h3.1870203l4.1845279 11.4441929h.0557056v-11.4441929h3.1025178v20.006802h-2.9925229l-4.3776091-12.496934h-.0557056v12.496934z" mask="url(#a)"></path><path d="m39.404336 58.9050198v-1.5512589c0-1.6900507-.7751573-2.4113908-1.6621979-2.4113908-1.3850863 0-1.8293147.7213401-1.8293147 2.2178375v10.1407767c0 1.4969695.4442284 2.2178375 1.8293147 2.2178375 1.2472385 0 1.6621979-.720868 1.6621979-2.0223959v-2.411863h3.4372234v2.3004518c0 2.8263503-1.6636142 5.1268021-5.0994213 5.1268021-3.6024518 0-5.2646498-2.3004518-5.2646498-5.1268021v-10.3093096c0-2.8254061 1.662198-5.12633 5.2646498-5.12633 3.4358071 0 5.0994213 2.4940051 5.0994213 5.4874721v1.4681726z" mask="url(#a)"></path><path d="m49.4413964 67.3010315c0 1.4974416.4447006 2.2183096 1.8293148 2.2183096 1.3860304 0 1.8288426-.720868 1.8288426-2.2183096v-10.1407767c0-1.4969695-.4428122-2.2183096-1.8288426-2.2183096-1.3846142 0-1.8293148.7213401-1.8293148 2.2183096zm-3.4358071-10.2252792c0-2.8258782 1.662198-5.126802 5.2651219-5.126802 3.6024517 0 5.2646497 2.3009238 5.2646497 5.126802v10.3093096c0 2.8263503-1.662198 5.1268021-5.2646497 5.1268021-3.6029239 0-5.2651219-2.3004518-5.2651219-5.1268021z" mask="url(#a)"></path><path d="m59.8271832 72.2860203v-20.006802h3.4372234v17.0142792h5.4029695v2.9925228z" mask="url(#a)"></path><path d="m71.4480289 72.2860203v-20.006802h3.1870203l4.184528 11.4441929h.0557055v-11.4441929h3.1029899v20.006802h-2.9929949l-4.3776092-12.496934h-.0557056v12.496934z" mask="url(#a)"></path><path d="m95.9966772 61.2834122h1.3298527c2.2456904 0 2.9377611-.6934873 2.9377611-3.0770254 0-2.383066-.6920707-3.0751371-2.9377611-3.0751371h-1.3298527zm-3.4358071 11.0282893v-20.0077462h4.9332487c4.2383452 0 6.2055072 1.6362335 6.2055072 5.9024315 0 4.2671421-1.967162 5.9033756-6.2055072 5.9033756h-1.4974416v8.2019391z" mask="url(#a)"></path><path d="m108.230709 64.8857695h2.770645l-1.357234-8.590934h-.055705zm-1.108447 7.4258376h-3.325812l3.68601-20.0063299h4.26667l3.687427 20.0063299h-3.326756l-.609457-4.4333147h-3.768153z" mask="url(#a)"></path><path d="m121.123955 61.2834122h1.218914c1.858584 0 2.550183-.6934873 2.550183-3.0770254 0-2.383066-.691599-3.0751371-2.550183-3.0751371h-1.218914zm0 11.0282893h-3.435335v-20.0077462h4.821838c3.852183 0 5.819345 1.6362335 5.819345 5.9024315 0 3.2153452-1.246766 4.5173452-2.410919 5.0441878l2.908493 9.0611269h-3.491041l-2.438772-8.2845533c-.443284.0542894-1.164152.0826142-1.773609.0826142z" mask="url(#a)"></path><path d="m130.98002 72.3118431v-20.006802h3.437223v7.3984569h.055706l3.601035-7.3984569h3.437696l-3.713863 7.4541625 4.184056 12.5526395h-3.491985l-2.798026-9.3103857h-.054761l-1.219858 2.2164213v7.0939644z" mask="url(#a)"></path><path d="m150.237157 55.297564v-2.9925229h9.088035v3.2686904l-6.31739 13.7455888h6.31739v2.9925228h-9.864609v-3.2691624l6.401422-13.7451167z" mask="url(#a)"></path><path d="m164.964816 67.3785c0 1.4979137.444229 2.2183096 1.829315 2.2183096 1.38603 0 1.828371-.7203959 1.828371-2.2183096v-10.1407766c0-1.4969696-.442341-2.2183097-1.828371-2.2183097-1.385086 0-1.829315.7213401-1.829315 2.2183097zm-3.435807-10.2248071c0-2.8263503 1.662198-5.1272741 5.265122-5.1272741 3.602452 0 5.264178 2.3009238 5.264178 5.1272741v10.3093096c0 2.8258782-1.661726 5.12633-5.264178 5.12633-3.602924 0-5.265122-2.3004518-5.265122-5.12633z" mask="url(#a)"></path><path d="m177.965036 67.3785c0 1.4979137.444228 2.2183096 1.829315 2.2183096 1.38603 0 1.82837-.7203959 1.82837-2.2183096v-10.1407766c0-1.4969696-.44234-2.2183097-1.82837-2.2183097-1.385087 0-1.829315.7213401-1.829315 2.2183097zm-3.435807-10.2248071c0-2.8263503 1.661726-5.1272741 5.265122-5.1272741 3.602452 0 5.264177 2.3009238 5.264177 5.1272741v10.3093096c0 2.8258782-1.661725 5.12633-5.264177 5.12633-3.603396 0-5.265122-2.3004518-5.265122-5.12633z" mask="url(#a)"></path><path d="m188.815068 70.5277066h.371055c.312518 0 .422985-.0991371.422985-.3030761 0-.2025229-.131238-.2714467-.444228-.2714467h-.349812zm0 1.2580964h-.427234v-2.1663807h.818589c.542893 0 .840776.1727818.840776.6429747 0 .395604-.240289.552335-.521649.5787715l.521649.9446345h-.474913l-.485772-.924335h-.271446zm.345091-2.6091928c-.824726 0-1.471949.6363654-1.471949 1.5285989 0 .8931777.647223 1.5295432 1.471949 1.5295432.813868 0 1.471477-.6363655 1.471477-1.5295432 0-.8922335-.657609-1.5285989-1.471477-1.5285989zm-1.984157 1.5285989c0-1.1735939.93472-1.9364771 1.984157-1.9364771 1.048492 0 1.982741.7628832 1.982741 1.9364771 0 1.1792589-.934249 1.9364772-1.982741 1.9364772-1.049437 0-1.984157-.7572183-1.984157-1.9364772z" mask="url(#a)"></path></g></g></svg> 